# xmcd CD database file
#
# Track frame offsets:
#	150
#	25740
#	48797
#	68502
#	88940
#	109432
#	132782
#	158115
#	180940
#	202542
#	225450
#	247872
#	268312
#	290402
#	313970
#	334607
#
# Disc length: 4546 seconds
#
# Revision: 1
# Processed by: cddbd v1.5.1PL2 Copyright (c) Steve Scherf et al.
# Submitted via: jetAudio 5
#
DISCID=d111c010
DTITLE=Pete Rock - PeteStrumentals
DYEAR=2001
DGENRE=Hip Hop - Rap
TTITLE0=A Little Soul
TTITLE1=Play Dis Only At Night
TTITLE2=Something Funky
TTITLE3=For The People
TTITLE4=To My Advantage (feat. Nature)
TTITLE5=Smooth Sailing
TTITLE6=Pete's Jazz
TTITLE7=Back On The Block (feat. CL Smooth)
TTITLE8=The Boss
TTITLE9=Get Involved
TTITLE10=Nothin' Lesser (feat. The UN)
TTITLE11=Walk On By
TTITLE12=Take The D Train
TTITLE13=Mind Frame (feat. Freddie Foxx)
TTITLE14=Cake (feat. The UN)
TTITLE15=Outro
EXTD=braught to you by Crazy Mike
EXTT0=
EXTT1=
EXTT2=
EXTT3=
EXTT4=
EXTT5=
EXTT6=
EXTT7=
EXTT8=
EXTT9=
EXTT10=
EXTT11=
EXTT12=
EXTT13=
EXTT14=
EXTT15=
PLAYORDER=
